<svg xmlns="http://www.w3.org/2000/svg" width="1200" height="500" preserveAspectRatio="none" xmlns:v="https://vecta.io/nano"><g mask="url(#A)" fill="none"><path fill="rgba(242, 242, 242, 1)" d="M0 0h1200v500H0z"/><path d="M336.47 318.55l64.95 37.5v75l-64.95 37.5-64.96-37.5v-75zm129.91-225l64.95 37.5v75l-64.95 37.5-64.96-37.5v-75zm714.49 112.5l64.95 37.5v75l-64.95 37.5-64.96-37.5v-75z" stroke="rgba(0, 0, 0, 0)" stroke-width="2"/><path d="M328.97 318.55a7.5 7.5 0 1 0 15 0 7.5 7.5 0 1 0-15 0zm64.95 37.5a7.5 7.5 0 1 0 15 0 7.5 7.5 0 1 0-15 0zm0 75a7.5 7.5 0 1 0 15 0 7.5 7.5 0 1 0-15 0zm-64.95 37.5a7.5 7.5 0 1 0 15 0 7.5 7.5 0 1 0-15 0zm-64.96-37.5a7.5 7.5 0 1 0 15 0 7.5 7.5 0 1 0-15 0zm0-75a7.5 7.5 0 1 0 15 0 7.5 7.5 0 1 0-15 0zm194.87-262.5a7.5 7.5 0 1 0 15 0 7.5 7.5 0 1 0-15 0zm64.95 37.5a7.5 7.5 0 1 0 15 0 7.5 7.5 0 1 0-15 0zm0 75a7.5 7.5 0 1 0 15 0 7.5 7.5 0 1 0-15 0zm-64.95 37.5a7.5 7.5 0 1 0 15 0 7.5 7.5 0 1 0-15 0zm-64.96-37.5a7.5 7.5 0 1 0 15 0 7.5 7.5 0 1 0-15 0zm0-75a7.5 7.5 0 1 0 15 0 7.5 7.5 0 1 0-15 0zm779.45 75a7.5 7.5 0 1 0 15 0 7.5 7.5 0 1 0-15 0zm64.95 37.5a7.5 7.5 0 1 0 15 0 7.5 7.5 0 1 0-15 0zm0 75a7.5 7.5 0 1 0 15 0 7.5 7.5 0 1 0-15 0zm-64.95 37.5a7.5 7.5 0 1 0 15 0 7.5 7.5 0 1 0-15 0zm-64.96-37.5a7.5 7.5 0 1 0 15 0 7.5 7.5 0 1 0-15 0zm0-75a7.5 7.5 0 1 0 15 0 7.5 7.5 0 1 0-15 0z" fill="rgba(0, 0, 0, 0)"/><path d="M86.2 195.06l43.3 25v50l-43.3 25-43.3-25v-50zm0 300l43.3 25v50l-43.3 25-43.3-25v-50zm43.3-525l43.31 25v50l-43.31 25-43.3-25v-50zm43.31 225l43.3 25v50l-43.3 25-43.31-25v-50zm-43.31 75l43.31 25v50l-43.31 25-43.3-25v-50zm43.31 75l43.3 25v50l-43.3 25-43.31-25v-50zm-43.31 75l43.31 25v50l-43.31 25-43.3-25v-50zm43.31 75l43.3 25v50l-43.3 25-43.31-25v-50zm43.3-375l43.3 25v50l-43.3 25-43.3-25v-50zm0 150l43.3 25v50l-43.3 25-43.3-25v-50zm0 150l43.3 25v50l-43.3 25-43.3-25v-50zm43.3 75l43.3 25v50l-43.3 25-43.3-25v-50zm86.61-450l43.3 25v50l-43.3 25-43.31-25v-50zm0 150l43.3 25v50l-43.3 25-43.31-25v-50zm-43.31 75l43.31 25v50l-43.31 25-43.3-25v-50zm86.61-300l43.3 25v50l-43.3 25-43.3-25v-50zm43.3 75l43.31 25v50l-43.31 25-43.3-25v-50zm-43.3 225l43.3 25v50l-43.3 25-43.3-25v-50zm43.3 75l43.31 25v50l-43.31 25-43.3-25v-50zm43.31-375l43.3 25v50l-43.3 25-43.31-25v-50zm43.3 75l43.3 25v50l-43.3 25-43.3-25v-50zm43.3-75l43.3 25v50l-43.3 25-43.3-25v-50zm43.3 75l43.3 25v50l-43.3 25-43.3-25v-50zm0 150l43.3 25v50l-43.3 25-43.3-25v-50zm-43.3 75l43.3 25v50l-43.3 25-43.3-25v-50zm43.3 225l43.3 25v50l-43.3 25-43.3-25v-50zm173.21 0l43.31 25v50l-43.31 25-43.3-25v-50zm43.31-525l43.3 25v50l-43.3 25-43.31-25v-50zm43.3 225l43.3 25v50l-43.3 25-43.3-25v-50zm43.3-75l43.3 25v50l-43.3 25-43.3-25v-50zm43.3 75l43.31 25v50l-43.31 25-43.3-25v-50zm0 150l43.31 25v50l-43.31 25-43.3-25v-50zm-43.3 75l43.3 25v50l-43.3 25-43.3-25v-50zm43.3 75l43.31 25v50l-43.31 25-43.3-25v-50zm86.61-150l43.3 25v50l-43.3 25-43.3-25v-50zm43.3-375l43.3 25v50l-43.3 25-43.3-25v-50zm43.3 75l43.31 25v50l-43.31 25-43.3-25v-50zm-43.3 75l43.3 25v50l-43.3 25-43.3-25v-50zm0 150l43.3 25v50l-43.3 25-43.3-25v-50zm43.3 75l43.31 25v50l-43.31 25-43.3-25v-50zm-43.3 75l43.3 25v50l-43.3 25-43.3-25v-50zm86.61-150l43.3 25v50l-43.3 25-43.31-25v-50zm43.3 75l43.3 25v50l-43.3 25-43.3-25v-50z" stroke="rgba(64, 64, 64, 1)" stroke-width="2"/></g><defs><mask id="A"><path fill="#fff" d="M0 0h1200v500H0z"/></mask></defs></svg>
